<svg width="256" height="256" viewBox="0 0 256 256" fill="none" xmlns="http://www.w3.org/2000/svg">
<rect width="256" height="256" fill="url(#paint0_linear_340_2)"/>
<rect x="23.6802" y="23.6802" width="208.64" height="208.64" rx="13.1128" fill="white"/>
<path d="M89.1313 16.8005C90.7666 16.8005 91.6703 15.929 92.1867 15.0361L90.8741 14.4013C90.5729 14.9931 89.9274 15.4449 89.1313 15.4449C87.8833 15.4449 86.9365 14.4444 86.9365 13.0888C86.9365 11.7332 87.8833 10.7327 89.1313 10.7327C89.9274 10.7327 90.5729 11.1953 90.8741 11.7763L92.1867 11.1308C91.681 10.2378 90.7666 9.37712 89.1313 9.37712C87.0334 9.37712 85.3658 10.8833 85.3658 13.0888C85.3658 15.2943 87.0334 16.8005 89.1313 16.8005ZM96.5818 16.6714H97.9481V12.9812C97.9481 11.9699 97.3994 11.3459 96.259 11.3459C95.4091 11.3459 94.7636 11.7547 94.4301 12.1528V9.49546H93.0638V16.6714H94.4301V13.1749C94.6668 12.8629 95.0864 12.5616 95.6135 12.5616C96.2052 12.5616 96.5818 12.7876 96.5818 13.5084V16.6714ZM98.971 14.0678C98.971 15.7354 100.165 16.8005 101.747 16.8005C102.554 16.8005 103.36 16.5638 103.888 16.0797L103.285 15.1975C102.952 15.5202 102.381 15.7139 101.897 15.7139C101.015 15.7139 100.488 15.1652 100.402 14.5089H104.264V14.2077C104.264 12.5078 103.21 11.3459 101.661 11.3459C100.079 11.3459 98.971 12.5616 98.971 14.0678ZM101.661 12.4325C102.564 12.4325 102.909 13.0888 102.941 13.5837H100.38C100.445 13.0673 100.811 12.4325 101.661 12.4325ZM104.918 14.0678C104.918 15.6708 106.069 16.8005 107.672 16.8005C108.737 16.8005 109.382 16.3379 109.727 15.8537L108.834 15.0253C108.586 15.3696 108.21 15.5848 107.736 15.5848C106.908 15.5848 106.327 14.9715 106.327 14.0678C106.327 13.1641 106.908 12.5616 107.736 12.5616C108.21 12.5616 108.586 12.766 108.834 13.1211L109.727 12.2927C109.382 11.8085 108.737 11.3459 107.672 11.3459C106.069 11.3459 104.918 12.4756 104.918 14.0678ZM113.987 16.6714H115.698L113.578 13.8311L115.633 11.475H113.955L111.986 13.7881V9.49546H110.62V16.6714H111.986V15.3373L112.61 14.6703L113.987 16.6714ZM118.556 16.8005C120.277 16.8005 121.31 15.5525 121.31 14.0678C121.31 12.5939 120.277 11.3459 118.556 11.3459C116.846 11.3459 115.813 12.5939 115.813 14.0678C115.813 15.5525 116.846 16.8005 118.556 16.8005ZM118.556 15.5848C117.706 15.5848 117.233 14.8855 117.233 14.0678C117.233 13.2609 117.706 12.5616 118.556 12.5616C119.406 12.5616 119.89 13.2609 119.89 14.0678C119.89 14.8855 119.406 15.5848 118.556 15.5848ZM125.831 16.6714H127.198V11.475H125.831V14.9931C125.595 15.2943 125.175 15.5848 124.648 15.5848C124.067 15.5848 123.69 15.3481 123.69 14.6273V11.475H122.324V15.1652C122.324 16.1765 122.862 16.8005 124.002 16.8005C124.852 16.8005 125.476 16.4132 125.831 16.0151V16.6714ZM130.297 16.8005C130.867 16.8005 131.233 16.6499 131.438 16.467L131.147 15.4342C131.072 15.5095 130.878 15.5848 130.674 15.5848C130.372 15.5848 130.2 15.3373 130.2 15.0146V12.6692H131.255V11.475H130.2V10.0549H128.823V11.475H127.963V12.6692H128.823V15.3804C128.823 16.3056 129.34 16.8005 130.297 16.8005ZM136.308 18.651V16.0044C136.728 16.5423 137.298 16.8005 137.911 16.8005C139.245 16.8005 140.214 15.7999 140.214 14.0678C140.214 12.3357 139.245 11.3459 137.911 11.3459C137.277 11.3459 136.706 11.6256 136.308 12.1313V11.475H134.942V18.651H136.308ZM138.794 14.0678C138.794 14.9715 138.266 15.5848 137.481 15.5848C137.04 15.5848 136.534 15.3158 136.308 14.9931V13.1534C136.534 12.8198 137.04 12.5616 137.481 12.5616C138.266 12.5616 138.794 13.1749 138.794 14.0678ZM141.235 16.6714H142.602V9.49546H141.235V16.6714ZM147.464 16.6714H148.83V11.475H147.464V14.9931C147.227 15.2943 146.808 15.5848 146.28 15.5848C145.699 15.5848 145.323 15.3481 145.323 14.6273V11.475H143.957V15.1652C143.957 16.1765 144.494 16.8005 145.635 16.8005C146.485 16.8005 147.109 16.4132 147.464 16.0151V16.6714ZM150.079 18.0054C150.725 18.5756 151.424 18.7801 152.317 18.7801C153.597 18.7801 155.125 18.2959 155.125 16.3164V11.475H153.748V12.1421C153.328 11.6149 152.769 11.3459 152.145 11.3459C150.832 11.3459 149.853 12.2927 149.853 13.9925C149.853 15.7246 150.843 16.6391 152.145 16.6391C152.78 16.6391 153.339 16.3379 153.748 15.8215V16.3486C153.748 17.3707 152.973 17.6612 152.317 17.6612C151.661 17.6612 151.112 17.4783 150.692 17.0157L150.079 18.0054ZM153.748 14.8317C153.522 15.1652 153.027 15.4234 152.575 15.4234C151.801 15.4234 151.263 14.8855 151.263 13.9925C151.263 13.0996 151.801 12.5616 152.575 12.5616C153.027 12.5616 153.522 12.8091 153.748 13.1534V14.8317ZM157.158 10.7112C157.61 10.7112 157.976 10.3454 157.976 9.89353C157.976 9.44167 157.61 9.07588 157.158 9.07588C156.717 9.07588 156.34 9.44167 156.34 9.89353C156.34 10.3454 156.717 10.7112 157.158 10.7112ZM156.48 16.6714H157.846V11.475H156.48V16.6714ZM162.709 16.6714H164.075V13.0027C164.075 11.9914 163.526 11.3459 162.386 11.3459C161.536 11.3459 160.901 11.7547 160.568 12.1528V11.475H159.201V16.6714H160.568V13.1749C160.794 12.8629 161.213 12.5616 161.751 12.5616C162.332 12.5616 162.709 12.8091 162.709 13.5299V16.6714ZM164.98 15.9936C165.528 16.4993 166.4 16.8005 167.304 16.8005C168.745 16.8005 169.552 16.0904 169.552 15.1329C169.552 13.8419 168.358 13.6052 167.465 13.4331C166.884 13.3147 166.475 13.1964 166.475 12.8736C166.475 12.5724 166.798 12.3895 167.293 12.3895C167.928 12.3895 168.519 12.6585 168.831 12.992L169.369 12.056C168.863 11.6472 168.164 11.3459 167.282 11.3459C165.916 11.3459 165.152 12.1098 165.152 12.9812C165.152 14.2184 166.303 14.4336 167.196 14.6058C167.788 14.7241 168.24 14.8532 168.24 15.219C168.24 15.5417 167.96 15.7462 167.368 15.7462C166.723 15.7462 165.948 15.3911 165.571 15.0361L164.98 15.9936Z" fill="white"/>
<rect x="55.0518" y="105.48" width="145.6" height="33.92" rx="5.92" stroke="#225DAC" stroke-width="0.96"/>
<path d="M67.7129 126.12H70.5115V121.41H73.8619C76.7 121.41 78.2767 119.498 78.2767 117.212C78.2767 114.906 76.7197 112.975 73.8619 112.975H67.7129V126.12ZM75.4189 117.192C75.4189 118.296 74.5912 119.005 73.4875 119.005H70.5115V115.379H73.4875C74.5912 115.379 75.4189 116.108 75.4189 117.192ZM85.2829 126.12H87.7859V119.971C87.7859 117.232 85.7953 116.364 83.6274 116.364C82.1295 116.364 80.6317 116.837 79.4689 117.862L80.4149 119.537C81.2229 118.789 82.169 118.414 83.1938 118.414C84.4551 118.414 85.2829 119.045 85.2829 120.01V121.331C84.6522 120.562 83.5288 120.168 82.2675 120.168C80.7499 120.168 78.9565 120.976 78.9565 123.203C78.9565 125.332 80.7499 126.357 82.2675 126.357C83.5091 126.357 84.6325 125.903 85.2829 125.135V126.12ZM85.2829 123.834C84.869 124.386 84.0807 124.662 83.2726 124.662C82.2872 124.662 81.4792 124.149 81.4792 123.262C81.4792 122.356 82.2872 121.824 83.2726 121.824C84.0807 121.824 84.869 122.1 85.2829 122.651V123.834ZM90.308 127.598L89.9335 129.845C90.2488 129.924 90.8795 129.983 91.1751 129.983C92.811 129.944 94.0723 129.471 94.7818 127.677L99.2557 116.601H96.5556L94.0723 123.223L91.589 116.601H88.9087L92.7715 126.258L92.4168 127.066C92.1803 127.579 91.7467 127.756 91.0963 127.756C90.8598 127.756 90.5248 127.697 90.308 127.598ZM112.178 126.12H114.701V119.242C114.701 117.291 113.657 116.364 111.903 116.364C110.444 116.364 109.183 117.232 108.631 118.099C108.276 117.015 107.389 116.364 105.99 116.364C104.532 116.364 103.27 117.271 102.876 117.843V116.601H100.373V126.12H102.876V119.715C103.25 119.183 103.98 118.591 104.847 118.591C105.872 118.591 106.266 119.222 106.266 120.109V126.12H108.789V119.695C109.143 119.183 109.873 118.591 110.759 118.591C111.784 118.591 112.178 119.222 112.178 120.109V126.12ZM116.545 121.351C116.545 124.405 118.733 126.357 121.63 126.357C123.108 126.357 124.586 125.923 125.552 125.036L124.448 123.42C123.837 124.011 122.793 124.366 121.906 124.366C120.29 124.366 119.324 123.361 119.166 122.159H126.242V121.607C126.242 118.493 124.31 116.364 121.472 116.364C118.575 116.364 116.545 118.591 116.545 121.351ZM121.472 118.355C123.128 118.355 123.758 119.557 123.818 120.464H119.127C119.245 119.518 119.915 118.355 121.472 118.355ZM134.475 126.12H136.978V119.399C136.978 117.547 135.973 116.364 133.883 116.364C132.326 116.364 131.164 117.113 130.553 117.843V116.601H128.05V126.12H130.553V119.715C130.967 119.143 131.735 118.591 132.721 118.591C133.785 118.591 134.475 119.045 134.475 120.365V126.12ZM142.656 126.357C143.7 126.357 144.37 126.081 144.745 125.746L144.213 123.854C144.075 123.992 143.72 124.13 143.346 124.13C142.794 124.13 142.478 123.676 142.478 123.085V118.789H144.41V116.601H142.478V113.999H139.956V116.601H138.379V118.789H139.956V123.755C139.956 125.45 140.902 126.357 142.656 126.357ZM145.295 124.878C146.3 125.805 147.896 126.357 149.552 126.357C152.193 126.357 153.671 125.056 153.671 123.302C153.671 120.937 151.483 120.503 149.847 120.188C148.783 119.971 148.034 119.754 148.034 119.163C148.034 118.611 148.625 118.276 149.532 118.276C150.695 118.276 151.779 118.769 152.35 119.38L153.336 117.665C152.409 116.916 151.128 116.364 149.512 116.364C147.009 116.364 145.61 117.764 145.61 119.36C145.61 121.627 147.719 122.021 149.355 122.336C150.438 122.553 151.266 122.789 151.266 123.459C151.266 124.051 150.754 124.425 149.67 124.425C148.487 124.425 147.068 123.775 146.379 123.124L145.295 124.878ZM160.616 126.12H163.415V120.641H169.781V118.237H163.415V115.379H169.919V112.975H160.616V126.12ZM176.231 126.357C179.385 126.357 181.277 124.07 181.277 121.351C181.277 118.651 179.385 116.364 176.231 116.364C173.098 116.364 171.206 118.651 171.206 121.351C171.206 124.07 173.098 126.357 176.231 126.357ZM176.231 124.13C174.674 124.13 173.807 122.848 173.807 121.351C173.807 119.873 174.674 118.591 176.231 118.591C177.788 118.591 178.675 119.873 178.675 121.351C178.675 122.848 177.788 124.13 176.231 124.13ZM183.134 126.12H185.637V119.833C186.05 119.222 187.154 118.769 187.982 118.769C188.258 118.769 188.494 118.789 188.672 118.828V116.384C187.489 116.384 186.307 117.054 185.637 117.902V116.601H183.134V126.12Z" fill="#225DAD"/>
<path fill-rule="evenodd" clip-rule="evenodd" d="M170.613 154H85.6615C80.2853 154 75.9332 158.395 75.9759 163.728V196.156C75.9759 201.532 80.328 205.884 85.7042 205.884H125.94L144.33 216.124L140.148 205.884H170.613C175.989 205.884 180.341 201.532 180.341 196.156V163.728C180.341 158.352 175.989 154 170.613 154ZM83.8696 161.51C82.6749 161.595 81.7789 162.022 81.1815 162.832C80.5842 163.6 80.3709 164.582 80.4989 165.691C83.0163 181.692 85.363 192.486 87.539 198.076C88.3924 200.124 89.3738 201.105 90.5258 201.02C92.3178 200.892 94.4512 198.417 96.9686 193.596C98.2913 190.865 100.339 186.769 103.113 181.307C105.417 189.371 108.574 195.431 112.542 199.484C113.652 200.636 114.804 201.148 115.913 201.063C116.895 200.977 117.662 200.465 118.174 199.526C118.601 198.716 118.772 197.777 118.687 196.71C118.43 192.828 118.815 187.409 119.881 180.454C120.99 173.286 122.356 168.123 124.02 165.051C124.361 164.411 124.489 163.771 124.447 163.003C124.361 162.022 123.935 161.211 123.124 160.571C122.313 159.931 121.417 159.632 120.436 159.717C119.199 159.803 118.26 160.4 117.62 161.595C114.975 166.416 113.097 174.225 111.988 185.062C110.366 180.966 109.001 176.145 107.934 170.47C107.465 167.952 106.313 166.758 104.435 166.886C103.155 166.971 102.089 167.824 101.235 169.446L91.8912 187.238C90.3551 181.051 88.9044 173.499 87.5817 164.582C87.283 162.363 86.0457 161.339 83.8696 161.51ZM166.09 164.582C169.12 165.222 171.381 166.843 172.917 169.531C174.283 171.835 174.965 174.609 174.965 177.937C174.965 182.331 173.856 186.342 171.637 190.012C169.077 194.279 165.749 196.412 161.61 196.412C160.885 196.412 160.117 196.326 159.306 196.156C156.277 195.516 154.015 193.895 152.479 191.206C151.114 188.86 150.431 186.044 150.431 182.758C150.431 178.363 151.541 174.353 153.759 170.726C156.362 166.459 159.69 164.326 163.786 164.326C164.512 164.326 165.28 164.411 166.09 164.582ZM164.299 187.665C165.877 186.257 166.944 184.166 167.541 181.35C167.712 180.369 167.84 179.302 167.84 178.193C167.84 176.955 167.584 175.633 167.072 174.31C166.432 172.646 165.578 171.75 164.554 171.537C163.018 171.238 161.525 172.091 160.117 174.182C158.965 175.803 158.239 177.51 157.856 179.259C157.642 180.241 157.557 181.308 157.557 182.374C157.557 183.612 157.813 184.934 158.325 186.257C158.965 187.921 159.818 188.817 160.842 189.03C161.909 189.244 163.061 188.774 164.299 187.665ZM146.165 169.531C144.628 166.843 142.324 165.222 139.338 164.582C138.527 164.411 137.759 164.326 137.033 164.326C132.938 164.326 129.609 166.459 127.007 170.726C124.788 174.353 123.679 178.363 123.679 182.758C123.679 186.044 124.361 188.86 125.727 191.206C127.263 193.895 129.524 195.516 132.553 196.156C133.364 196.326 134.132 196.412 134.858 196.412C138.996 196.412 142.324 194.279 144.884 190.012C147.103 186.342 148.212 182.331 148.212 177.937C148.212 174.609 147.53 171.835 146.165 169.531ZM140.788 181.35C140.191 184.166 139.124 186.257 137.545 187.665C136.308 188.774 135.156 189.244 134.09 189.03C133.065 188.817 132.212 187.921 131.572 186.257C131.06 184.934 130.804 183.612 130.804 182.374C130.804 181.308 130.889 180.241 131.103 179.259C131.487 177.51 132.212 175.803 133.364 174.182C134.772 172.091 136.266 171.238 137.802 171.537C138.826 171.75 139.679 172.646 140.319 174.31C140.831 175.633 141.087 176.955 141.087 178.193C141.087 179.302 141.002 180.369 140.788 181.35Z" fill="#7F54B3"/>
<g clip-path="url(#clip0_340_2)">
<path fill-rule="evenodd" clip-rule="evenodd" d="M185 66.585C185 58.1228 180.901 51.4456 173.067 51.4456C165.233 51.4456 160.44 58.1228 160.44 66.5189C160.44 76.4686 166.059 81.4931 174.125 81.4931C178.058 81.4931 181.033 80.6006 183.281 79.3444V72.7333C181.033 73.8572 178.455 74.5514 175.182 74.5514C171.91 74.5514 169.133 73.4275 168.77 69.5269H184.934C184.934 69.0972 185 67.3783 185 66.585ZM168.671 63.4447C168.671 59.7094 170.951 58.1558 173.034 58.1558C175.116 58.1558 177.199 59.7094 177.199 63.4447H168.671Z" fill="#635BFF"/>
<path fill-rule="evenodd" clip-rule="evenodd" d="M147.68 51.4456C144.441 51.4456 142.358 52.9661 141.201 54.0239L140.772 51.9744H133.499V90.5172L141.763 88.7653L141.796 79.4106C142.986 80.27 144.738 81.4931 147.647 81.4931C153.564 81.4931 158.952 76.7331 158.952 66.2544C158.919 56.6683 153.465 51.4456 147.68 51.4456ZM145.697 74.2208C143.747 74.2208 142.59 73.5267 141.796 72.6672L141.763 60.4036C142.623 59.445 143.813 58.7839 145.697 58.7839C148.705 58.7839 150.788 62.1556 150.788 66.4858C150.788 70.8161 148.738 74.2208 145.697 74.2208Z" fill="#635BFF"/>
<path fill-rule="evenodd" clip-rule="evenodd" d="M122.128 49.4953L130.425 47.7103V41L122.128 42.7519V49.4953Z" fill="#635BFF"/>
<path d="M130.425 52.0075H122.128V80.9311H130.425V52.0075Z" fill="#635BFF"/>
<path fill-rule="evenodd" clip-rule="evenodd" d="M113.236 54.4536L112.708 52.0075H105.568V80.9311H113.831V61.3292C115.782 58.7839 119.087 59.2467 120.112 59.6103V52.0075C119.054 51.6108 115.187 50.8836 113.236 54.4536Z" fill="#635BFF"/>
<path fill-rule="evenodd" clip-rule="evenodd" d="M96.7086 44.8344L88.643 46.5533L88.61 73.0308C88.61 77.9231 92.2792 81.5261 97.1714 81.5261C99.8819 81.5261 101.865 81.0303 102.956 80.4353V73.725C101.898 74.1547 96.6755 75.6753 96.6755 70.7831V59.0483H102.956V52.0075H96.6755L96.7086 44.8344Z" fill="#635BFF"/>
<path fill-rule="evenodd" clip-rule="evenodd" d="M74.3631 60.4036C74.3631 59.1144 75.4208 58.6186 77.1728 58.6186C79.685 58.6186 82.8583 59.3789 85.3706 60.7342V52.9661C82.6269 51.8753 79.9164 51.4456 77.1728 51.4456C70.4625 51.4456 66 54.9494 66 60.8003C66 69.9236 78.5611 68.4692 78.5611 72.4028C78.5611 73.9233 77.2389 74.4192 75.3878 74.4192C72.6442 74.4192 69.1403 73.2953 66.3636 71.7747V79.6419C69.4378 80.9642 72.545 81.5261 75.3878 81.5261C82.2633 81.5261 86.9903 78.1214 86.9903 72.2044C86.9572 62.3539 74.3631 64.1058 74.3631 60.4036Z" fill="#635BFF"/>
</g>
<defs>
<linearGradient id="paint0_linear_340_2" x1="256" y1="256" x2="0" y2="0" gradientUnits="userSpaceOnUse">
<stop stop-color="#2922A5"/>
<stop offset="1" stop-color="#635BFF"/>
</linearGradient>
<clipPath id="clip0_340_2">
<rect width="119" height="49.5172" fill="white" transform="translate(66 41)"/>
</clipPath>
</defs>
</svg>
