<svg width="280" height="186" viewBox="0 0 280 186" fill="none" xmlns="http://www.w3.org/2000/svg">
<path d="M47.6899 166.78L22.6499 185.05L12.4399 0.950195L40.1899 13.1302L47.6899 166.78Z" fill="#F3F4F6"/>
<path d="M22.65 185.551C22.5741 185.548 22.4994 185.531 22.43 185.501C22.3503 185.462 22.2823 185.402 22.2331 185.329C22.1839 185.255 22.1552 185.169 22.15 185.081L11.94 1.00075C11.9345 0.915581 11.951 0.830436 11.9877 0.753418C12.0245 0.676399 12.0803 0.610072 12.15 0.560749C12.2251 0.51961 12.3093 0.498047 12.395 0.498047C12.4806 0.498047 12.5649 0.51961 12.64 0.560749L40.39 12.7407C40.475 12.7802 40.5478 12.842 40.6006 12.9194C40.6534 12.9969 40.6843 13.0872 40.69 13.1807L48.19 166.821C48.194 166.903 48.1778 166.986 48.143 167.06C48.1082 167.135 48.0557 167.201 47.99 167.251L22.99 185.521C22.885 185.575 22.7629 185.586 22.65 185.551ZM13 1.74075L23.1 184.101L47.18 166.531L39.71 13.4707L13 1.74075Z" fill="#374151"/>
<path d="M22.6501 185.05L9.20007 184.64L0.570068 6.07019L12.4401 0.950195L22.6501 185.05Z" fill="#F3F4F6"/>
<path d="M22.65 185.551L9.21004 185.141C9.08348 185.141 8.96178 185.092 8.87044 185.004C8.77911 184.917 8.72521 184.797 8.72005 184.671L0.0700444 6.09061C0.0656913 5.98966 0.0920291 5.88976 0.145583 5.80407C0.199137 5.71838 0.277393 5.65094 0.370044 5.61061L12.24 0.490612C12.3111 0.45379 12.39 0.43457 12.47 0.43457C12.5501 0.43457 12.629 0.45379 12.7 0.490612C12.7688 0.531159 12.8266 0.587881 12.8684 0.655849C12.9102 0.723818 12.9348 0.800975 12.94 0.880611L23.15 185.001C23.1515 185.14 23.1017 185.275 23.01 185.381C22.9645 185.432 22.9092 185.473 22.8473 185.502C22.7855 185.531 22.7184 185.548 22.65 185.551ZM9.65005 184.161L22.09 184.531L12 1.69061L1.11005 6.39061L9.65005 184.161Z" fill="#374151"/>
<path d="M17.0601 10.5801L25.0601 161.31L44.0101 148L36.6901 18.4701L17.0601 10.5801Z" fill="white"/>
<path d="M17.0599 10.5802L36.6899 18.4702L43.9999 148L24.9999 161.31L16.9999 10.5802M16.9999 9.58015C16.7926 9.57858 16.5899 9.64148 16.4199 9.76015C16.284 9.85902 16.1751 9.99056 16.1035 10.1426C16.0318 10.2947 15.9996 10.4624 16.0099 10.6301L24.0099 161.36C24.0186 161.539 24.0752 161.712 24.1737 161.862C24.2722 162.011 24.409 162.132 24.5699 162.21C24.7071 162.277 24.8576 162.311 25.0099 162.31C25.2173 162.312 25.4199 162.249 25.5899 162.13L44.5899 148.82C44.7292 148.722 44.8409 148.589 44.9145 148.435C44.988 148.281 45.0208 148.11 45.0099 147.94L37.6899 18.4201C37.6794 18.2314 37.6156 18.0494 37.5058 17.8954C37.3961 17.7414 37.245 17.6217 37.0699 17.5502L17.4399 9.65015C17.319 9.60234 17.1899 9.57856 17.0599 9.58015H16.9999Z" fill="#374151"/>
<path d="M35.9399 171.42C35.522 171.415 35.1163 171.278 34.7799 171.03C33.6399 170.2 32.9299 168.11 32.9299 165.56C32.9299 161.85 34.3799 158.46 36.2499 157.85C36.5459 157.748 36.8626 157.721 37.1715 157.772C37.4805 157.823 37.772 157.949 38.0199 158.14C39.1699 158.97 39.8799 161.06 39.8799 163.6C39.8799 167.32 38.4199 170.71 36.5599 171.32C36.3598 171.386 36.1506 171.42 35.9399 171.42ZM36.8599 158.75C36.7576 158.747 36.6557 158.764 36.5599 158.8C35.2899 159.22 33.9299 162.03 33.9299 165.56C33.9299 167.76 34.4899 169.56 35.3699 170.22C35.4927 170.316 35.6374 170.38 35.791 170.406C35.9446 170.433 36.1023 170.42 36.2499 170.37C37.5199 169.95 38.8799 167.13 38.8799 163.6C38.8799 161.41 38.3099 159.6 37.4399 158.95C37.2723 158.824 37.0694 158.755 36.8599 158.75Z" fill="#374151"/>
<path d="M31.58 13.3402C31.5175 13.3551 31.4525 13.3551 31.39 13.3402L26.84 11.4702C26.7789 11.4446 26.7235 11.4072 26.6769 11.3602C26.6303 11.3132 26.5934 11.2574 26.5683 11.1961C26.5432 11.1348 26.5305 11.0692 26.5308 11.003C26.5311 10.9368 26.5444 10.8713 26.57 10.8102C26.5956 10.7491 26.633 10.6937 26.68 10.6471C26.727 10.6005 26.7828 10.5636 26.8441 10.5385C26.9054 10.5134 26.971 10.5007 27.0372 10.501C27.1034 10.5013 27.1689 10.5146 27.23 10.5402L31.77 12.4202C31.8671 12.4778 31.9424 12.566 31.984 12.6709C32.0257 12.7759 32.0313 12.8917 32 13.0002C31.971 13.0918 31.9158 13.1729 31.8411 13.2333C31.7664 13.2938 31.6756 13.331 31.58 13.3402Z" fill="#374151"/>
<path d="M25.4302 10.6503C25.3609 10.6645 25.2894 10.6645 25.2202 10.6503L24.3802 10.2703C24.3197 10.2433 24.2652 10.2048 24.2197 10.1568C24.1742 10.1088 24.1386 10.0523 24.1149 9.99056C24.0913 9.92881 24.08 9.863 24.0817 9.79689C24.0835 9.73078 24.0982 9.66566 24.1252 9.60526C24.1521 9.54485 24.1906 9.49033 24.2386 9.44483C24.2866 9.39932 24.3431 9.36371 24.4048 9.34003C24.4666 9.31635 24.5324 9.30506 24.5985 9.30682C24.6646 9.30857 24.7297 9.32333 24.7902 9.35025L25.6302 9.73026C25.7514 9.78684 25.8455 9.88877 25.8923 10.0141C25.939 10.1394 25.9347 10.2781 25.8802 10.4003C25.8357 10.4796 25.7701 10.545 25.6906 10.5891C25.6112 10.6333 25.521 10.6544 25.4302 10.6503Z" fill="#374151"/>
<path d="M59 75.1702C59 75.1702 68.3 77.4902 73.49 75.2302C78.68 72.9702 80.09 68.0702 85.96 67.6102C91.83 67.1502 107 66.4902 107 66.4902L107.91 52.9502C107.91 52.9502 98.43 42.0602 88.84 41.1602C79.25 40.2602 64.27 54.4202 59 56.3302V75.1702Z" fill="white"/>
<path d="M67.49 76.7302C64.5798 76.6867 61.6829 76.3279 58.85 75.6602C58.7408 75.6332 58.6438 75.5701 58.5749 75.4812C58.5059 75.3923 58.469 75.2827 58.47 75.1702V56.3302C58.47 56.2274 58.5017 56.1272 58.5608 56.0431C58.6198 55.959 58.7034 55.8951 58.8 55.8602C60.47 55.2602 63.24 53.3202 66.45 51.0802C73.12 46.4202 82.26 40.0802 88.91 40.6602C98.58 41.5702 107.91 52.1702 108.3 52.6602C108.343 52.7089 108.376 52.7659 108.397 52.8278C108.418 52.8897 108.426 52.9551 108.42 53.0202L107.52 66.5602C107.511 66.6818 107.458 66.796 107.372 66.8822C107.286 66.9685 107.172 67.0209 107.05 67.0302C106.89 67.0302 91.76 67.7102 85.97 68.1502C82.73 68.4002 80.97 70.0402 78.97 71.9402C77.4575 73.5124 75.6718 74.7966 73.7 75.7302C71.718 76.4766 69.6061 76.8167 67.49 76.7302ZM59.49 74.7302C61.27 75.1302 68.89 76.6502 73.28 74.7302C75.1472 73.8323 76.8402 72.61 78.28 71.1202C80.36 69.1802 82.33 67.3402 85.92 67.1202C91.16 66.7102 104.02 66.1202 106.58 66.0102L107.44 53.1302C106.26 51.8102 97.51 42.4702 88.84 41.6602C82.57 41.0702 73.6 47.3302 67.05 51.9002C64.6762 53.7058 62.1501 55.3018 59.5 56.6702L59.49 74.7302Z" fill="#374151"/>
<path d="M31.35 88.59L60.35 81.26C60.35 81.26 57.08 65.53 60.35 53.96H28.42C28.42 53.96 25.04 60.51 26.42 72.13C27.8 83.75 31.35 88.59 31.35 88.59Z" fill="#1E293B"/>
<path d="M31.3501 89.09C31.2722 89.0916 31.1951 89.0742 31.1254 89.0394C31.0557 89.0045 30.9955 88.9533 30.9501 88.89C30.8001 88.69 27.2501 83.8 25.9501 72.18C24.6501 60.56 27.8401 54 28.0001 53.73C28.0436 53.6505 28.107 53.5839 28.1842 53.5365C28.2614 53.4892 28.3496 53.4628 28.4401 53.46H60.3401C60.4176 53.4607 60.4939 53.4791 60.5632 53.5138C60.6325 53.5484 60.693 53.5984 60.7401 53.66C60.7867 53.7221 60.8181 53.7942 60.832 53.8705C60.8459 53.9469 60.8418 54.0254 60.8201 54.1C57.6201 65.42 60.8201 81.01 60.8201 81.16C60.8472 81.2871 60.8238 81.4198 60.7547 81.53C60.6856 81.6401 60.5764 81.719 60.4501 81.75L31.4501 89.07L31.3501 89.09ZM28.7401 54.46C28.1501 55.8 25.7401 62.05 26.8901 72.07C28.0301 81.89 30.8301 86.85 31.5701 88.07L59.7401 80.94C59.2401 78.28 56.9801 64.86 59.6701 54.51L28.7401 54.46Z" fill="#374151"/>
<path d="M132.77 49.2305H85.79C83.6858 49.2305 81.98 50.9363 81.98 53.0405V79.9405C81.98 82.0447 83.6858 83.7505 85.79 83.7505H132.77C134.874 83.7505 136.58 82.0447 136.58 79.9405V53.0405C136.58 50.9363 134.874 49.2305 132.77 49.2305Z" fill="white"/>
<g clip-path="url(#clip0_4989_267)">
<path d="M82 52.037C82 50.3597 83.3597 49 85.037 49H133.963C135.64 49 137 50.3597 137 52.037V80.963C137 82.6403 135.64 84 133.963 84H85.037C83.3597 84 82 82.6403 82 80.963V52.037Z" fill="#613C99"/>
<rect x="84.2778" y="45.5557" width="36.4444" height="22.0185" fill="white"/>
<path d="M115.621 56.67C116.208 56.67 116.795 57.1267 116.795 58.1707H114.381C114.381 57.1267 115.034 56.67 115.621 56.67ZM107.987 56.8657C108.77 56.8657 109.357 57.7792 109.357 59.0189C109.357 60.2586 108.835 61.1721 107.987 61.1721C107.4 61.1721 107.073 60.9764 106.878 60.7806V57.3224C107.073 57.0615 107.4 56.8657 107.987 56.8657ZM117.97 44.3379C119.666 44.3379 121.102 45.7734 121.102 47.4699V70.4375C121.102 72.1992 119.666 73.5694 117.97 73.5694H86.6505C84.8888 73.5694 83.5186 72.1992 83.5186 70.4375V47.4699C83.5186 45.7734 84.8888 44.3379 86.6505 44.3379H117.97ZM91.4789 60.6501C91.4789 57.8444 87.8902 58.3664 87.8902 57.3224C87.8902 56.931 88.2165 56.8005 88.7385 56.8005C89.391 56.8005 90.3044 56.9962 91.0222 57.3877V55.2345C90.2392 54.9082 89.4562 54.7777 88.7385 54.7777C86.8462 54.7777 85.6065 55.7565 85.6065 57.4529C85.6065 59.9976 89.13 59.5409 89.13 60.6501C89.13 61.1069 88.7385 61.2374 88.2165 61.2374C87.4335 61.2374 86.4548 60.9111 85.6718 60.5196V62.7381C86.52 63.0643 87.4335 63.2601 88.2165 63.2601C90.1087 63.2601 91.4789 62.2814 91.4789 60.6501ZM95.9811 56.931V54.9735H94.2194V52.9508L91.9357 53.4075V60.8459C91.9357 62.2161 92.9796 63.2601 94.3499 63.2601C95.0676 63.2601 95.6548 63.1296 95.9811 62.9338V61.0416C95.6548 61.1721 94.2194 61.5636 94.2194 60.1934V56.931H95.9811ZM100.809 57.0615V54.9735H100.744C100.483 54.843 99.374 54.6472 98.852 55.626L98.7215 54.9735H96.6988V63.0643H98.9825V57.5834C99.5698 56.8657 100.483 56.9962 100.809 57.0615ZM103.68 63.0643V54.9735H101.331V63.0643H103.68ZM103.68 53.7338V51.8415L101.331 52.3635V54.2558L103.68 53.7338ZM108.509 63.2601C110.14 63.2601 111.641 61.8899 111.641 58.9537C111.641 56.2785 110.14 54.7777 108.509 54.7777C107.595 54.7777 107.008 55.2345 106.682 55.4955L106.551 54.9735H104.529V65.7395L106.878 65.2828V62.6729C107.204 62.8686 107.661 63.2601 108.509 63.2601ZM118.949 59.8672C118.949 59.7367 119.014 59.2799 119.014 59.0189C119.014 56.67 117.839 54.7777 115.621 54.7777C113.403 54.7777 112.098 56.67 112.098 59.0189C112.098 61.8246 113.664 63.2601 115.947 63.2601C117.056 63.2601 117.839 62.9991 118.492 62.6076V60.7806C117.839 61.1069 117.122 61.3026 116.208 61.3026C115.295 61.3026 114.512 60.9764 114.447 59.8672H118.949Z" fill="#613C99"/>
</g>
<path d="M132.77 49.2304C133.271 49.2291 133.767 49.3268 134.23 49.5178C134.692 49.7088 135.113 49.9894 135.467 50.3434C135.821 50.6975 136.102 51.118 136.293 51.5808C136.484 52.0437 136.581 52.5397 136.58 53.0404V79.9304C136.581 80.4316 136.484 80.9281 136.293 81.3915C136.102 81.8549 135.822 82.2761 135.468 82.631C135.114 82.9858 134.693 83.2674 134.23 83.4595C133.767 83.6516 133.271 83.7504 132.77 83.7504H85.77C84.7586 83.7478 83.7895 83.3442 83.0753 82.6281C82.3611 81.9119 81.96 80.9418 81.96 79.9304V53.0004C81.96 51.99 82.3614 51.0209 83.0759 50.3064C83.7904 49.5918 84.7595 49.1904 85.77 49.1904H132.77M132.77 48.1904H85.77C84.5021 48.2036 83.2904 48.7158 82.3975 49.6162C81.5047 50.5165 81.0026 51.7324 81 53.0004V79.8904C81 81.167 81.5064 82.3915 82.4082 83.2952C83.31 84.1988 84.5334 84.7078 85.81 84.7104H132.81C134.087 84.7078 135.31 84.1988 136.212 83.2952C137.114 82.3915 137.62 81.167 137.62 79.8904V53.0004C137.617 51.7255 137.11 50.5036 136.208 49.6022C135.307 48.7007 134.085 48.1931 132.81 48.1904H132.77Z" fill="#374151"/>
<path d="M75.6602 69.3109C75.6602 69.3109 88.4202 69.9509 93.8202 68.4009C99.2202 66.8509 100.25 62.7609 97.8902 60.2809C95.5302 57.8009 89.9901 60.1709 83.4501 59.2809C76.9101 58.3909 75.6602 57.9209 75.6602 57.9209" fill="white"/>
<path d="M81.73 69.9408C78.46 69.9408 75.87 69.8208 75.64 69.8008C75.5743 69.7983 75.5098 69.7828 75.4501 69.7552C75.3905 69.7277 75.3368 69.6887 75.2922 69.6404C75.2476 69.5921 75.213 69.5354 75.1903 69.4738C75.1676 69.4121 75.1573 69.3465 75.16 69.2808C75.1611 69.2142 75.1759 69.1485 75.2037 69.088C75.2315 69.0274 75.2716 68.9733 75.3215 68.9291C75.3714 68.8849 75.4299 68.8515 75.4933 68.8312C75.5568 68.8108 75.6238 68.8039 75.69 68.8108C75.81 68.8108 88.42 69.4308 93.69 67.9208C96.25 67.1908 98 65.7708 98.47 64.0408C98.6259 63.4391 98.6202 62.8069 98.4533 62.2081C98.2865 61.6094 97.9646 61.0653 97.52 60.6308C96.32 59.3608 93.99 59.5408 91.05 59.7708C88.5013 60.0562 85.9287 60.0562 83.38 59.7708C76.86 58.8708 75.54 58.4108 75.49 58.3908C75.4265 58.3699 75.3679 58.3364 75.3176 58.2924C75.2673 58.2484 75.2263 58.1947 75.197 58.1346C75.1678 58.0745 75.1509 58.0091 75.1474 57.9424C75.1439 57.8756 75.1538 57.8088 75.1765 57.746C75.1993 57.6831 75.2344 57.6254 75.2798 57.5764C75.3252 57.5273 75.38 57.4878 75.4409 57.4603C75.5019 57.4328 75.5677 57.4178 75.6345 57.4162C75.7013 57.4145 75.7678 57.4263 75.83 57.4508C78.3586 58.0757 80.9284 58.5201 83.52 58.7808C85.9957 59.0564 88.4943 59.0564 90.97 58.7808C94.18 58.5408 96.71 58.3408 98.25 59.9508C98.8135 60.5112 99.2193 61.2103 99.4265 61.9775C99.6336 62.7447 99.6349 63.553 99.43 64.3208C98.87 66.3908 96.88 68.0608 93.96 68.8908C91.04 69.7208 85.81 69.9408 81.73 69.9408Z" fill="#374151"/>
<path d="M90.47 74.6807H86.72C86.5874 74.6807 86.4602 74.628 86.3664 74.5342C86.2726 74.4405 86.22 74.3133 86.22 74.1807C86.22 74.0481 86.2726 73.9209 86.3664 73.8271C86.4602 73.7333 86.5874 73.6807 86.72 73.6807H90.47C90.6026 73.6807 90.7297 73.7333 90.8235 73.8271C90.9173 73.9209 90.97 74.0481 90.97 74.1807C90.97 74.3133 90.9173 74.4405 90.8235 74.5342C90.7297 74.628 90.6026 74.6807 90.47 74.6807Z" fill="#D1D5DB"/>
<path d="M96.6501 74.6807H92.8901C92.7575 74.6807 92.6304 74.628 92.5366 74.5342C92.4428 74.4405 92.3901 74.3133 92.3901 74.1807C92.3927 74.0489 92.4462 73.9232 92.5394 73.83C92.6326 73.7367 92.7583 73.6832 92.8901 73.6807H96.6501C96.7819 73.6832 96.9076 73.7367 97.0009 73.83C97.0941 73.9232 97.1476 74.0489 97.1501 74.1807C97.1501 74.3133 97.0975 74.4405 97.0037 74.5342C96.9099 74.628 96.7827 74.6807 96.6501 74.6807Z" fill="#D1D5DB"/>
<path d="M102.82 74.6807H99.0701C98.9375 74.6807 98.8103 74.628 98.7165 74.5342C98.6227 74.4405 98.5701 74.3133 98.5701 74.1807C98.5701 74.0481 98.6227 73.9209 98.7165 73.8271C98.8103 73.7333 98.9375 73.6807 99.0701 73.6807H102.82C102.953 73.6807 103.08 73.7333 103.174 73.8271C103.267 73.9209 103.32 74.0481 103.32 74.1807C103.32 74.3133 103.267 74.4405 103.174 74.5342C103.08 74.628 102.953 74.6807 102.82 74.6807Z" fill="#D1D5DB"/>
<path d="M109 74.6807H105.25C105.117 74.6807 104.99 74.628 104.896 74.5342C104.803 74.4405 104.75 74.3133 104.75 74.1807C104.75 74.0481 104.803 73.9209 104.896 73.8271C104.99 73.7333 105.117 73.6807 105.25 73.6807H109C109.132 73.6832 109.258 73.7367 109.351 73.83C109.444 73.9232 109.497 74.0489 109.5 74.1807C109.5 74.3133 109.447 74.4405 109.354 74.5342C109.26 74.628 109.133 74.6807 109 74.6807Z" fill="#D1D5DB"/>
<path d="M99.07 79.5605H86.72C86.5874 79.5605 86.4602 79.5079 86.3664 79.4141C86.2726 79.3203 86.22 79.1932 86.22 79.0605C86.22 78.9279 86.2726 78.8008 86.3664 78.707C86.4602 78.6132 86.5874 78.5605 86.72 78.5605H99.07C99.2026 78.5605 99.3298 78.6132 99.4235 78.707C99.5173 78.8008 99.57 78.9279 99.57 79.0605C99.57 79.1932 99.5173 79.3203 99.4235 79.4141C99.3298 79.5079 99.2026 79.5605 99.07 79.5605Z" fill="#D1D5DB"/>
<path d="M232.31 166.78L257.35 185.05L267.56 0.950195L239.81 13.1302L232.31 166.78Z" fill="#F3F4F6"/>
<path d="M257.35 185.55C257.245 185.552 257.142 185.517 257.06 185.45L232 167.18C231.934 167.13 231.882 167.065 231.847 166.99C231.812 166.915 231.796 166.833 231.8 166.75L239.3 13.1104C239.306 13.0169 239.337 12.9266 239.39 12.8491C239.442 12.7717 239.515 12.7099 239.6 12.6704L267.35 0.49044C267.425 0.449302 267.51 0.427734 267.595 0.427734C267.681 0.427734 267.765 0.449302 267.84 0.49044C267.91 0.539764 267.966 0.606091 268.002 0.683109C268.039 0.760128 268.056 0.845273 268.05 0.930439L257.84 185.03C257.835 185.119 257.806 185.205 257.757 185.278C257.708 185.352 257.64 185.412 257.56 185.45C257.497 185.497 257.426 185.531 257.35 185.55ZM232.82 166.55L256.9 184.1L267 1.74044L240.29 13.4704L232.82 166.55Z" fill="#374151"/>
<path d="M257.35 185.05L270.8 184.64L279.43 6.07019L267.56 0.950195L257.35 185.05Z" fill="#F3F4F6"/>
<path d="M257.35 185.551C257.215 185.55 257.085 185.496 256.99 185.401C256.899 185.295 256.849 185.16 256.85 185.021L267.06 0.920647C267.065 0.84101 267.09 0.763857 267.132 0.695889C267.174 0.62792 267.231 0.571194 267.3 0.530647C267.371 0.493826 267.45 0.474609 267.53 0.474609C267.61 0.474609 267.689 0.493826 267.76 0.530647L279.63 5.65065C279.723 5.69097 279.801 5.75842 279.855 5.84411C279.908 5.92979 279.934 6.0297 279.93 6.13065L271.3 184.671C271.295 184.797 271.241 184.917 271.15 185.004C271.058 185.092 270.937 185.141 270.81 185.141L257.37 185.551H257.35ZM268 1.69065L257.88 184.531L270.32 184.161L278.91 6.39065L268 1.69065Z" fill="#374151"/>
<path d="M262.94 10.5801L254.94 161.31L235.99 148L243.31 18.4701L262.94 10.5801Z" fill="white"/>
<path d="M262.94 10.5802L254.94 161.31L236 148L243.32 18.4702L262.95 10.5802M262.95 9.58015C262.82 9.57856 262.691 9.60234 262.57 9.65015L242.94 17.5502C242.765 17.6217 242.614 17.7414 242.504 17.8954C242.394 18.0494 242.331 18.2314 242.32 18.4201L235 147.94C234.989 148.11 235.022 148.281 235.096 148.435C235.169 148.589 235.281 148.722 235.42 148.82L254.37 162.13C254.54 162.249 254.743 162.312 254.95 162.31C255.102 162.311 255.253 162.277 255.39 162.21C255.551 162.132 255.688 162.011 255.786 161.862C255.885 161.712 255.941 161.539 255.95 161.36L263.95 10.6301C263.96 10.4624 263.928 10.2947 263.857 10.1426C263.785 9.99056 263.676 9.85902 263.54 9.76015C263.37 9.64148 263.167 9.57858 262.96 9.58015H262.95Z" fill="#374151"/>
<path d="M244.06 171.42C243.849 171.42 243.64 171.386 243.44 171.32C241.58 170.71 240.12 167.32 240.12 163.6C240.12 161.06 240.83 158.97 241.98 158.14C242.228 157.949 242.52 157.823 242.829 157.772C243.137 157.721 243.454 157.748 243.75 157.85C245.62 158.46 247.07 161.85 247.07 165.56C247.07 168.11 246.36 170.2 245.22 171.03C244.884 171.278 244.478 171.415 244.06 171.42ZM243.14 158.75C242.931 158.755 242.728 158.824 242.56 158.95C241.69 159.58 241.12 161.41 241.12 163.6C241.12 167.13 242.48 169.95 243.75 170.37C243.898 170.42 244.055 170.433 244.209 170.406C244.363 170.38 244.507 170.316 244.63 170.22C245.51 169.59 246.07 167.76 246.07 165.56C246.07 162.03 244.71 159.22 243.44 158.8C243.344 158.764 243.242 158.747 243.14 158.75Z" fill="#374151"/>
<path d="M248.42 13.3409C248.324 13.3316 248.234 13.2945 248.159 13.234C248.084 13.1736 248.029 13.0925 248 13.0009C247.953 12.8786 247.955 12.7429 248.005 12.6218C248.055 12.5008 248.15 12.4038 248.27 12.3509L252.81 10.4709C252.933 10.4192 253.072 10.4185 253.196 10.4692C253.32 10.5198 253.418 10.6175 253.47 10.7409C253.522 10.8642 253.522 11.003 253.472 11.1268C253.421 11.2506 253.323 11.3492 253.2 11.4009L248.65 13.2709C248.582 13.3167 248.502 13.341 248.42 13.3409Z" fill="#374151"/>
<path d="M254.57 10.6502C254.475 10.6507 254.382 10.6236 254.302 10.5721C254.222 10.5206 254.159 10.447 254.12 10.3602C254.065 10.2381 254.061 10.0994 254.108 9.97405C254.155 9.84873 254.249 9.7468 254.37 9.69022L255.21 9.31021C255.27 9.28329 255.335 9.26853 255.402 9.26678C255.468 9.26502 255.534 9.27631 255.595 9.29999C255.657 9.32367 255.714 9.35928 255.761 9.40479C255.809 9.45029 255.848 9.50481 255.875 9.56522C255.902 9.62563 255.917 9.69074 255.918 9.75685C255.92 9.82296 255.909 9.88877 255.885 9.95053C255.862 10.0123 255.826 10.0688 255.78 10.1167C255.735 10.1647 255.68 10.2033 255.62 10.2302L254.78 10.6102C254.713 10.6379 254.642 10.6516 254.57 10.6502Z" fill="#374151"/>
<path d="M215.14 85.9404H148.81V150.66H215.14V85.9404Z" fill="white"/>
<path d="M215.14 85.9404V150.66H148.81V85.9404H215.14ZM215.14 84.9404H148.81C148.545 84.9404 148.29 85.0458 148.103 85.2333C147.915 85.4209 147.81 85.6752 147.81 85.9404V150.66C147.81 150.926 147.915 151.18 148.103 151.368C148.29 151.555 148.545 151.66 148.81 151.66H215.14C215.405 151.66 215.66 151.555 215.847 151.368C216.035 151.18 216.14 150.926 216.14 150.66V85.9404C216.14 85.6752 216.035 85.4209 215.847 85.2333C215.66 85.0458 215.405 84.9404 215.14 84.9404Z" fill="#374151"/>
<path d="M209.9 50.0004C207.72 47.4704 204.33 46.3704 201.05 45.7704C197.77 45.1704 194.37 44.9604 191.27 43.7104C189.01 42.8004 186.89 41.3404 184.46 41.1404C182.03 40.9404 179.19 42.8504 179.67 45.2404C180.094 46.5053 180.965 47.5719 182.12 48.2404C184.319 49.8606 186.599 51.3692 188.95 52.7604C186.85 52.4204 184.43 52.1804 182.85 53.6004C181.51 54.8104 181.28 56.7904 181.24 58.6004C181.116 64.0407 181.966 69.4593 183.75 74.6004C184.21 76.3604 185.198 77.9375 186.58 79.1204C188.24 80.3004 190.42 80.3304 192.45 80.3204L224.45 80.1004C225.79 80.1004 224.9 59.1004 223.05 56.9904C221.38 55.1104 219.61 55.6204 217.35 55.3804C213.4 54.9204 212.29 52.7704 209.9 50.0004Z" fill="white"/>
<path d="M191.9 80.7909C190.15 80.7909 187.96 80.6909 186.29 79.5009C184.824 78.2612 183.776 76.5987 183.29 74.7409C181.481 69.5537 180.62 64.083 180.75 58.5909C180.75 56.7009 181.04 54.5909 182.52 53.2409C183.113 52.7666 183.793 52.4146 184.523 52.2052C185.252 51.9958 186.016 51.9331 186.77 52.0209C185.08 50.9609 183.43 49.8309 181.83 48.6509C180.566 47.9134 179.624 46.7288 179.19 45.3309C179.091 44.8085 179.119 44.2701 179.27 43.7605C179.422 43.2509 179.692 42.7848 180.06 42.4009C180.624 41.7947 181.316 41.3221 182.086 41.0176C182.856 40.7131 183.684 40.5844 184.51 40.6409C186.251 40.8828 187.931 41.4529 189.46 42.3209C190.12 42.6409 190.79 42.9709 191.46 43.2409C193.725 44.0402 196.073 44.577 198.46 44.8409C199.36 44.9709 200.25 45.1109 201.15 45.2709C205.48 46.0609 208.39 47.4509 210.29 49.6709C210.66 50.0909 211 50.5109 211.29 50.9009C213.07 53.0809 214.24 54.5109 217.4 54.8509C217.92 54.9109 218.4 54.9209 218.89 54.9409C220.49 54.9409 222.01 55.0309 223.42 56.6309C225.31 58.7509 226.25 77.5309 225.13 80.0509C225.085 80.1958 224.997 80.3234 224.877 80.4164C224.757 80.5094 224.612 80.5633 224.46 80.5709L192.46 80.7909H191.9ZM186.3 53.0009C185.172 52.9342 184.059 53.2908 183.18 54.0009C181.98 55.0909 181.78 57.0009 181.74 58.6309C181.615 64.0035 182.455 69.355 184.22 74.4309C184.652 76.0915 185.58 77.581 186.88 78.7009C188.34 79.7009 190.26 79.8309 192.45 79.8109H192.56L224.27 79.5909C225.1 77.5909 224.38 59.2009 222.7 57.3109C221.56 56.0409 220.44 56.0109 218.88 55.9609C218.38 55.9609 217.88 55.9609 217.31 55.8709C213.75 55.4809 212.31 53.7509 210.54 51.5609C210.22 51.1709 209.88 50.7609 209.54 50.3409C207.79 48.3409 205.07 47.0209 200.98 46.2709C200.1 46.1109 199.21 45.9809 198.32 45.8509C195.86 45.581 193.44 45.0239 191.11 44.1909C190.4 43.9009 189.7 43.5609 189.03 43.1909C187.613 42.3794 186.056 41.8401 184.44 41.6009C183.767 41.5593 183.094 41.6659 182.466 41.9129C181.839 42.16 181.274 42.5416 180.81 43.0309C180.548 43.3011 180.355 43.6298 180.245 43.9898C180.135 44.3497 180.113 44.7306 180.18 45.1009C180.58 46.2478 181.378 47.213 182.43 47.8209C184.61 49.4209 186.9 50.9309 189.23 52.3109C189.329 52.3714 189.403 52.4642 189.441 52.5735C189.479 52.6828 189.478 52.8019 189.438 52.9104C189.398 53.0189 189.321 53.1102 189.221 53.1686C189.121 53.227 189.004 53.2491 188.89 53.2309C188.034 53.0885 187.168 53.0116 186.3 53.0009Z" fill="#374151"/>
<path d="M197.93 92.2408C197.865 92.2421 197.8 92.2304 197.74 92.2064C197.679 92.1824 197.624 92.1465 197.577 92.1008C197.531 92.0552 197.494 92.0007 197.468 91.9406C197.443 91.8805 197.43 91.816 197.43 91.7508C197.43 91.3508 196.78 52.5508 181.98 52.5508C167.18 52.5508 166.53 91.3508 166.53 91.7508C166.528 91.8816 166.474 92.0063 166.38 92.0979C166.287 92.1895 166.161 92.2408 166.03 92.2408C165.964 92.2395 165.9 92.2253 165.84 92.1989C165.779 92.1726 165.725 92.1347 165.679 92.0873C165.634 92.0399 165.598 91.9841 165.574 91.9229C165.55 91.8617 165.539 91.7964 165.54 91.7308C165.54 90.0908 166.21 51.5508 181.99 51.5508C188.67 51.5508 193.47 58.3608 196.25 71.7908C197.528 78.3658 198.26 85.0352 198.44 91.7308C198.441 91.7973 198.43 91.8634 198.405 91.9252C198.38 91.987 198.344 92.0433 198.297 92.0908C198.251 92.1383 198.195 92.176 198.134 92.2018C198.072 92.2275 198.007 92.2408 197.94 92.2408H197.93Z" fill="#374151"/>
<path d="M247.69 87.3907L221.12 81.2607C221.12 81.2607 224.39 65.5307 221.12 53.9607L250.61 52.7607C250.61 52.7607 254 59.3107 252.61 70.9207C251.22 82.5307 247.69 87.3907 247.69 87.3907Z" fill="#1E293B"/>
<path d="M247.69 87.8907H247.58L221 81.7507C220.872 81.722 220.76 81.644 220.689 81.5336C220.618 81.4232 220.593 81.2893 220.62 81.1607C220.62 81.0107 223.83 65.4107 220.62 54.1007C220.6 54.0277 220.597 53.951 220.61 53.8765C220.624 53.802 220.655 53.7317 220.7 53.6707C220.744 53.6104 220.801 53.5604 220.867 53.5242C220.933 53.4879 221.005 53.4663 221.08 53.4607L250.57 52.2607C250.665 52.2613 250.758 52.2865 250.841 52.3338C250.923 52.3811 250.992 52.449 251.04 52.5307C251.18 52.8107 254.48 59.3507 253.12 70.9807C251.76 82.6107 248.22 87.4807 248.07 87.6907C248.024 87.7483 247.966 87.7957 247.901 87.8301C247.835 87.8645 247.764 87.8852 247.69 87.8907ZM221.69 80.8907L247.45 86.8307C248.19 85.6807 250.99 80.7207 252.14 70.8807C253.3 60.8807 250.89 54.6507 250.29 53.2907L221.76 54.4507C224.46 64.7807 222.2 78.1907 221.7 80.8807L221.69 80.8907Z" fill="#374151"/>
<path d="M201.94 76.3606H201.8C192.45 73.5206 191 68.0006 191 67.7706C190.97 67.6434 190.99 67.5093 191.058 67.3971C191.125 67.285 191.233 67.2036 191.36 67.1706C191.49 67.1403 191.626 67.162 191.74 67.2312C191.855 67.3003 191.937 67.4114 191.97 67.5406C191.97 67.5406 193.36 72.7506 202.12 75.3806C202.245 75.4198 202.35 75.5069 202.412 75.6229C202.474 75.7389 202.488 75.8746 202.45 76.0006C202.42 76.1105 202.353 76.2066 202.26 76.2723C202.167 76.338 202.054 76.3692 201.94 76.3606Z" fill="#374151"/>
<path d="M182.77 52.8609C185.752 52.4533 188.762 52.2927 191.77 52.3809C193.77 52.4309 196.18 52.9209 196.77 54.8209C196.909 55.4103 196.889 56.0258 196.713 56.6052C196.538 57.1846 196.212 57.7075 195.77 58.1209C194.897 58.9358 193.88 59.5802 192.77 60.0209C194.56 60.0209 196.77 60.3609 197.38 62.0209C197.549 62.6138 197.535 63.2438 197.341 63.8288C197.146 64.4139 196.78 64.9268 196.29 65.3009C195.303 66.0276 194.181 66.551 192.99 66.8409C194.99 67.2009 197.45 68.0409 197.61 70.0609C197.77 72.0809 195.67 73.2309 193.83 73.8209C194.39 74.8209 196.04 74.6209 196.93 75.4109C197.306 75.8491 197.495 76.4176 197.456 76.9939C197.417 77.5701 197.152 78.1078 196.72 78.4909C195.819 79.2224 194.709 79.6495 193.55 79.7109C191.229 80.0063 188.884 80.07 186.55 79.9009C185.075 79.9529 183.632 79.4659 182.49 78.5309C181.49 77.4709 181.6 75.3309 183 74.9009C182.162 74.8435 181.358 74.5438 180.686 74.0382C180.015 73.5326 179.504 72.8429 179.217 72.0528C178.93 71.2628 178.879 70.4064 179.069 69.5877C179.26 68.7689 179.684 68.0231 180.29 67.4409C179.647 67.1766 179.085 66.747 178.662 66.1955C178.239 65.644 177.969 64.9903 177.88 64.3009C177.834 63.6247 177.949 62.9471 178.217 62.3244C178.485 61.7018 178.897 61.1521 179.42 60.7209C174 58.0009 178.89 53.4009 182.77 52.8609Z" fill="white"/>
<path d="M189.33 80.5003C188.43 80.5003 187.5 80.4703 186.54 80.4103C184.937 80.4637 183.372 79.9183 182.15 78.8803C181.804 78.4979 181.557 78.0356 181.433 77.5347C181.31 77.0339 181.312 76.5101 181.44 76.0103C181.521 75.7131 181.653 75.4322 181.83 75.1803C181.089 74.9418 180.416 74.5277 179.87 73.9733C179.323 73.4189 178.919 72.7405 178.691 71.996C178.463 71.2516 178.419 70.4631 178.561 69.6977C178.704 68.9323 179.029 68.2127 179.51 67.6003C178.937 67.2549 178.45 66.7837 178.087 66.2223C177.723 65.661 177.491 65.0243 177.41 64.3603C177.353 63.7215 177.431 63.0778 177.639 62.4712C177.848 61.8647 178.182 61.3089 178.62 60.8403C176.62 59.6203 176.41 58.2003 176.62 57.1903C177.03 54.7903 180.18 52.7203 182.74 52.3703C185.761 51.9522 188.812 51.7883 191.86 51.8803C194.86 51.9603 196.78 52.9303 197.34 54.6603C197.517 55.3316 197.511 56.0379 197.323 56.7061C197.135 57.3743 196.771 57.98 196.27 58.4603C195.809 58.9383 195.28 59.3459 194.7 59.6703C195.387 59.7171 196.049 59.9442 196.619 60.3287C197.19 60.7133 197.649 61.2416 197.95 61.8603C198.148 62.5487 198.137 63.2805 197.918 63.9625C197.699 64.6445 197.282 65.246 196.72 65.6903C196.162 66.1424 195.538 66.5066 194.87 66.7703C197.44 67.6003 198.12 68.9503 198.21 70.0303C198.34 71.6503 197.1 73.1103 194.87 74.0303C195.14 74.152 195.421 74.2458 195.71 74.3103C196.311 74.4276 196.876 74.6845 197.36 75.0603C197.584 75.2661 197.764 75.5165 197.886 75.7954C198.008 76.0744 198.071 76.3757 198.07 76.6803C198.074 77.0869 197.996 77.4901 197.841 77.8662C197.687 78.2423 197.458 78.5837 197.17 78.8703C196.19 79.6785 194.978 80.1547 193.71 80.2303C192.258 80.4218 190.794 80.512 189.33 80.5003ZM182.84 53.3603C180.62 53.6603 177.9 55.4403 177.57 57.3603C177.37 58.4803 178.08 59.4703 179.67 60.2903C179.742 60.3268 179.803 60.3807 179.849 60.4471C179.894 60.5135 179.922 60.5902 179.93 60.6703C179.94 60.7495 179.93 60.8299 179.902 60.9047C179.874 60.9795 179.829 61.0466 179.77 61.1003C179.308 61.4788 178.942 61.9619 178.704 62.5097C178.466 63.0575 178.362 63.6542 178.4 64.2503C178.475 64.8511 178.71 65.4209 179.079 65.9009C179.448 66.3808 179.939 66.7535 180.5 66.9803C180.578 67.0116 180.647 67.0617 180.702 67.1263C180.756 67.1909 180.793 67.2678 180.81 67.3503C180.824 67.4334 180.818 67.5187 180.792 67.5988C180.766 67.6789 180.72 67.7515 180.66 67.8103C180.125 68.327 179.751 68.9876 179.583 69.7123C179.416 70.4371 179.461 71.1948 179.715 71.894C179.969 72.5932 180.42 73.2039 181.014 73.6522C181.607 74.1006 182.318 74.3673 183.06 74.4203C183.193 74.4057 183.326 74.4444 183.43 74.5279C183.534 74.6113 183.6 74.7327 183.615 74.8653C183.63 74.9979 183.591 75.1309 183.507 75.235C183.424 75.339 183.303 75.4057 183.17 75.4203C182.978 75.4854 182.806 75.6001 182.673 75.7529C182.539 75.9057 182.449 76.0911 182.41 76.2903C182.328 76.6254 182.327 76.9753 182.407 77.311C182.487 77.6466 182.645 77.9583 182.87 78.2203C183.922 79.0693 185.249 79.5033 186.6 79.4403C188.913 79.6173 191.239 79.5569 193.54 79.2603C194.593 79.207 195.604 78.826 196.43 78.1703C196.623 77.9815 196.775 77.7558 196.878 77.5066C196.981 77.2574 197.033 76.99 197.03 76.7203C197.031 76.5548 196.999 76.3907 196.935 76.2379C196.871 76.085 196.778 75.9464 196.66 75.8303C196.287 75.5654 195.86 75.3846 195.41 75.3003C195.011 75.2533 194.626 75.1219 194.281 74.9151C193.936 74.7082 193.639 74.4305 193.41 74.1003C193.381 74.0325 193.365 73.9593 193.365 73.8853C193.365 73.8113 193.381 73.7382 193.41 73.6703C193.439 73.6044 193.482 73.5454 193.535 73.4971C193.588 73.4489 193.651 73.4124 193.72 73.3903C194.57 73.1103 197.31 72.0803 197.15 70.1403C197.02 68.4503 194.79 67.7003 192.94 67.3703C192.829 67.3521 192.728 67.2965 192.654 67.2128C192.579 67.1291 192.535 67.0223 192.53 66.9103C192.523 66.7984 192.553 66.6872 192.617 66.5947C192.68 66.5022 192.773 66.4337 192.88 66.4003C194.008 66.1302 195.071 65.6409 196.01 64.9603C196.426 64.6556 196.742 64.235 196.92 63.7511C197.098 63.2673 197.129 62.7418 197.01 62.2403C196.6 61.1503 195.24 60.5903 192.85 60.5503C192.736 60.5499 192.626 60.5097 192.538 60.4367C192.45 60.3637 192.391 60.2624 192.37 60.1503C192.346 60.039 192.361 59.9229 192.411 59.821C192.462 59.7192 192.547 59.6378 192.65 59.5903C193.72 59.1853 194.701 58.5775 195.54 57.8003C195.915 57.4492 196.19 57.0052 196.337 56.5134C196.485 56.0217 196.499 55.4996 196.38 55.0003C195.85 53.3603 193.61 53.0003 191.82 52.9103C188.829 52.8199 185.835 52.9805 182.87 53.3903L182.84 53.3603Z" fill="#374151"/>
<path d="M181.75 61.2007C181.617 61.2007 181.49 61.148 181.396 61.0543C181.303 60.9605 181.25 60.8333 181.25 60.7007C181.25 60.5681 181.303 60.4409 181.396 60.3472C181.49 60.2534 181.617 60.2007 181.75 60.2007L192.83 59.5107C192.896 59.5067 192.962 59.5156 193.024 59.537C193.086 59.5585 193.143 59.592 193.193 59.6357C193.242 59.6793 193.282 59.7323 193.311 59.7915C193.339 59.8507 193.356 59.915 193.36 59.9807C193.363 60.1121 193.316 60.2398 193.229 60.3381C193.142 60.4365 193.021 60.4981 192.89 60.5107L181.82 61.1907L181.75 61.2007Z" fill="#374151"/>
<path d="M183.25 67.8703C183.123 67.8704 183.002 67.8215 182.91 67.7339C182.819 67.6463 182.765 67.5268 182.76 67.4003C182.756 67.3346 182.765 67.2688 182.786 67.2066C182.808 67.1443 182.841 67.087 182.885 67.0377C182.929 66.9885 182.982 66.9483 183.041 66.9196C183.1 66.8909 183.164 66.8741 183.23 66.8703L193.02 66.3503C193.086 66.3448 193.152 66.3528 193.215 66.3737C193.278 66.3947 193.336 66.4281 193.385 66.472C193.435 66.5159 193.475 66.5695 193.503 66.6293C193.532 66.6892 193.548 66.7541 193.55 66.8203C193.553 66.886 193.542 66.9515 193.52 67.0132C193.497 67.0749 193.462 67.1315 193.418 67.1798C193.373 67.2281 193.32 67.2671 193.26 67.2947C193.2 67.3222 193.136 67.3377 193.07 67.3403L183.28 67.8703H183.25Z" fill="#374151"/>
<path d="M185.38 75.0008C185.248 75.0008 185.12 74.9481 185.027 74.8543C184.933 74.7605 184.88 74.6334 184.88 74.5008C184.88 74.3682 184.933 74.241 185.027 74.1472C185.12 74.0534 185.248 74.0008 185.38 74.0008L193.89 73.3308C193.956 73.3239 194.023 73.3305 194.086 73.3501C194.149 73.3698 194.208 73.4021 194.259 73.4451C194.309 73.4881 194.35 73.5409 194.38 73.6004C194.409 73.6598 194.426 73.7245 194.43 73.7908C194.436 73.8565 194.428 73.9226 194.408 73.9854C194.388 74.0481 194.355 74.1063 194.312 74.1565C194.27 74.2066 194.217 74.2479 194.159 74.2778C194.1 74.3077 194.036 74.3257 193.97 74.3308L185.46 74.9908L185.38 75.0008Z" fill="#374151"/>
<path d="M170.07 103.211H157.43C157.297 103.211 157.17 103.158 157.076 103.064C156.983 102.971 156.93 102.844 156.93 102.711C156.932 102.579 156.986 102.453 157.079 102.36C157.172 102.267 157.298 102.213 157.43 102.211H170.07C170.202 102.213 170.327 102.267 170.421 102.36C170.514 102.453 170.567 102.579 170.57 102.711C170.57 102.844 170.517 102.971 170.423 103.064C170.33 103.158 170.203 103.211 170.07 103.211Z" fill="#D1D5DB"/>
<defs>
<clipPath id="clip0_4989_267">
<path d="M82 52.037C82 50.3597 83.3597 49 85.037 49H133.963C135.64 49 137 50.3597 137 52.037V80.963C137 82.6403 135.64 84 133.963 84H85.037C83.3597 84 82 82.6403 82 80.963V52.037Z" fill="white"/>
</clipPath>
</defs>
</svg>
