<svg width="181" height="26" viewBox="0 0 181 26" fill="none" xmlns="http://www.w3.org/2000/svg">
<path d="M90.1 2.2998C91.1 2.2998 92 2.2998 93 2.2998C93.5 2.2998 93.7 2.49981 93.8 2.89981C94.2 4.29981 94.5 5.6998 94.9 7.0998C94.9 7.2998 95 7.2998 95.2 7.2998C95.7 7.3998 96.1 7.3998 96.6 7.4998C96.7 7.4998 96.8 7.59981 96.8 7.69981C96.9 7.89981 96.8 8.19981 96.8 8.39981C96.9 9.9998 97.7 11.4998 99 12.3998C99.3 12.5998 99.6 12.7998 100 12.9998C100.9 13.3998 101.9 13.4998 102.9 13.3998C103.7 13.2998 104.4 12.9998 105 12.5998C105.9 11.9998 106.7 10.9998 107 9.9998C107 9.8998 107.2 9.19981 107.1 9.19981C107.9 9.29981 108.2 9.3998 109 9.4998C109.3 9.4998 109.3 9.5998 109.3 9.89981C109.3 12.3998 109.2 14.8998 109.2 17.3998C109.2 17.6998 109.1 17.7998 108.8 17.7998C105 17.7998 101.2 17.7998 97.3 17.7998C97.1 17.7998 96.9 17.8998 96.8 17.9998C95.7 18.9998 94.6 19.8998 93.4 20.8998C93.3 20.8998 93.3 20.9998 93.3 20.9998C93.3 21.0998 93.2 21.1998 93.2 21.2998C93.2 21.3998 93.4 21.3998 93.5 21.3998C93.6 21.3998 93.7 21.3998 93.7 21.3998C99.1 21.3998 104.5 21.3998 109.8 21.3998C109.9 21.3998 110 21.3998 110.1 21.3998C110.1 21.8998 110.1 22.2998 110.1 22.7998C109.2 22.7998 108.3 22.7998 107.4 22.7998C107.6 23.2998 107.7 23.7998 107.5 24.1998C107.4 24.4998 107.2 24.6998 106.9 24.8998C106.3 25.1998 105.6 25.1998 105.1 24.6998C104.6 24.1998 104.4 23.5998 104.8 22.6998C102.9 22.6998 100.9 22.6998 98.9 22.6998C99.1 23.0998 99.2 23.5998 99 23.9998C98.9 24.2998 98.7 24.5998 98.4 24.6998C97.9 25.0998 97.1 25.0998 96.6 24.5998C96 24.0998 95.9 23.4998 96.2 22.5998C96.1 22.5998 96 22.5998 95.9 22.5998C95.1 22.5998 94.2 22.5998 93.4 22.5998C92.6 22.5998 92 22.1998 91.8 21.4998C91.5 20.7998 91.7 20.0998 92.3 19.5998C93.4 18.6998 94.4 17.6998 95.5 16.7998C95.6 16.6998 95.6 16.5998 95.6 16.4998C94.6 12.2998 93.6 7.9998 92.6 3.7998C92.6 3.5998 92.5 3.4998 92.3 3.5998C91.7 3.5998 91 3.5998 90.4 3.5998C90.3 3.5998 90.2 3.5998 90.2 3.5998C90.1 3.1998 90.1 2.7998 90.1 2.2998Z" fill="#613C99"/>
<path d="M103.2 0.799805C103.7 0.899805 104.2 0.999805 104.7 1.1998C107.6 2.1998 109.5 5.0998 109.2 8.0998C108.9 11.2998 106.5 13.7998 103.4 14.1998C99.8 14.6998 96.4 12.0998 95.9 8.4998C95.4 4.7998 97.9 1.3998 101.6 0.899805C101.7 0.899805 101.7 0.899805 101.8 0.799805C102.3 0.799805 102.8 0.799805 103.2 0.799805Z" fill="#FF6D00"/>
<path d="M10.4 16.8998C10.5 16.8998 10.6 16.8998 10.6 16.8998C10.7 16.8998 10.8 16.9998 10.8 17.0998L12.1 18.4998C11.5 19.2998 10.8 19.7998 9.9 20.1998C9 20.5998 8 20.7998 6.8 20.7998C5.7 20.7998 4.7 20.5998 3.9 20.1998C3 19.7998 2.3 19.2998 1.7 18.6998C1.1 18.0998 0.6 17.2998 0.3 16.3998C-5.96046e-08 15.4998 0 14.4998 0 13.4998C0 12.3998 0.2 11.4998 0.5 10.5998C0.9 9.6998 1.4 8.8998 2 8.2998C2.7 7.5998 3.5 7.0998 4.4 6.7998C5.3 6.3998 6.3 6.2998 7.4 6.2998C7.9 6.2998 8.4 6.29981 8.9 6.39981C9.4 6.49981 9.8 6.5998 10.2 6.7998C10.6 6.9998 11 7.19981 11.3 7.39981C11.6 7.59981 12 7.89981 12.2 8.19981L11.1 9.69981C11 9.79981 10.9 9.89981 10.8 9.89981C10.7 9.9998 10.6 9.9998 10.4 9.9998C10.3 9.9998 10.2 9.9998 10.1 9.89981C10 9.79981 9.9 9.79981 9.8 9.69981C9.7 9.59981 9.6 9.4998 9.4 9.4998C9.3 9.3998 9.1 9.2998 8.9 9.2998C8.7 9.1998 8.5 9.1998 8.2 9.0998C7.9 8.9998 7.6 8.9998 7.3 8.9998C6.7 8.9998 6.2 9.0998 5.7 9.2998C5.2 9.4998 4.8 9.79981 4.4 10.1998C4 10.5998 3.8 11.0998 3.6 11.5998C3.4 12.1998 3.3 12.7998 3.3 13.4998C3.3 14.1998 3.4 14.8998 3.6 15.3998C3.8 15.9998 4.1 16.3998 4.4 16.7998C4.7 17.1998 5.1 17.4998 5.6 17.6998C6.1 17.9998 6.6 18.0998 7.2 18.0998C7.5 18.0998 7.8 18.0998 8 18.0998C8.2 18.0998 8.5 17.9998 8.7 17.8998C8.9 17.7998 9.1 17.6998 9.3 17.5998C9.5 17.4998 9.7 17.2998 9.9 17.1998C10 17.0998 10.1 17.0998 10.2 16.9998C10.2 16.9998 10.3 16.8998 10.4 16.8998Z" fill="#613C99"/>
<path d="M13.7 20.6V6H16.7V11.4C17.1 11.1 17.5 10.8 17.9 10.6C18.3 10.4 18.8 10.3 19.4 10.3C20 10.3 20.4 10.4 20.9 10.6C21.4 10.8 21.7 11.1 22 11.4C22.3 11.7 22.5 12.2 22.7 12.6C22.9 13.1 22.9 13.6 22.9 14.1V20.6H19.9V14.1C19.9 13.6 19.8 13.2 19.6 12.9C19.4 12.6 19 12.5 18.6 12.5C18.3 12.5 18 12.6 17.7 12.7C17.4 12.8 17.1 13 16.9 13.3V20.5H13.7V20.6Z" fill="#613C99"/>
<path d="M29.4 10.2998C30.1 10.2998 30.7 10.3998 31.2 10.5998C31.8 10.7998 32.2 11.0998 32.6 11.4998C33 11.8998 33.3 12.3998 33.5 12.9998C33.7 13.5998 33.8 14.1998 33.8 14.9998C33.8 15.1998 33.8 15.3998 33.8 15.5998C33.8 15.6998 33.7 15.8998 33.7 15.8998C33.6 15.9998 33.6 15.9998 33.5 16.0998C33.4 16.0998 33.3 16.0998 33.2 16.0998H27.3C27.4 16.8998 27.7 17.5998 28.1 17.8998C28.5 18.2998 29.1 18.4998 29.7 18.4998C30.1 18.4998 30.4 18.4998 30.6 18.3998C30.9 18.2998 31.1 18.1998 31.3 18.0998C31.5 17.9998 31.7 17.8998 31.8 17.7998C32 17.6998 32.1 17.6998 32.3 17.6998C32.5 17.6998 32.7 17.7998 32.8 17.9998L33.7 19.0998C33.4 19.4998 33 19.7998 32.7 19.9998C32.3 20.1998 32 20.3998 31.6 20.4998C31.2 20.5998 30.8 20.6998 30.5 20.7998C30.1 20.7998 29.8 20.8998 29.4 20.8998C28.7 20.8998 28 20.7998 27.4 20.5998C26.8 20.3998 26.2 19.9998 25.8 19.5998C25.3 19.0998 25 18.5998 24.7 17.8998C24.4 17.1998 24.3 16.3998 24.3 15.4998C24.3 14.7998 24.4 14.1998 24.6 13.5998C24.8 12.9998 25.2 12.4998 25.6 11.9998C26 11.4998 26.6 11.1998 27.2 10.8998C27.9 10.4998 28.6 10.2998 29.4 10.2998ZM29.4 12.3998C28.8 12.3998 28.4 12.5998 28 12.8998C27.7 13.1998 27.5 13.6998 27.4 14.2998H31.2C31.2 14.0998 31.2 13.7998 31.1 13.5998C31 13.3998 30.9 13.1998 30.8 12.9998C30.7 12.7998 30.5 12.6998 30.2 12.5998C30 12.4998 29.8 12.3998 29.4 12.3998Z" fill="#613C99"/>
<path d="M43 12.9002C42.9 13.0002 42.8 13.1002 42.7 13.2002C42.6 13.3002 42.5 13.3002 42.3 13.3002C42.1 13.3002 42 13.3002 41.9 13.2002C41.8 13.1002 41.6 13.0002 41.5 13.0002C41.3 12.9002 41.2 12.8002 41 12.8002C40.8 12.7002 40.5 12.7002 40.2 12.7002C39.8 12.7002 39.5 12.8002 39.2 12.9002C38.9 13.0002 38.7 13.2002 38.5 13.5002C38.3 13.8002 38.2 14.1002 38.1 14.4002C38 14.8002 38 15.2002 38 15.6002C38 16.6002 38.2 17.3002 38.6 17.8002C39 18.3002 39.5 18.6002 40.2 18.6002C40.6 18.6002 40.8 18.6002 41 18.5002C41.2 18.4002 41.4 18.3002 41.5 18.2002C41.6 18.1002 41.8 18.0002 41.9 17.9002C42 17.8002 42.2 17.8002 42.4 17.8002C42.6 17.8002 42.8 17.9002 42.9 18.1002L43.8 19.2002C43.5 19.6002 43.2 19.9002 42.8 20.1002C42.5 20.3002 42.1 20.5002 41.7 20.6002C41.3 20.7002 41 20.8002 40.6 20.9002C40.2 21.0002 39.9 21.0002 39.5 21.0002C38.9 21.0002 38.3 20.9002 37.7 20.6002C37.1 20.4002 36.6 20.0002 36.2 19.6002C35.8 19.2002 35.4 18.6002 35.2 17.9002C35.1 17.1002 35 16.4002 35 15.5002C35 14.8002 35.1 14.1002 35.3 13.4002C35.5 12.8002 35.8 12.2002 36.3 11.7002C36.7 11.2002 37.3 10.9002 37.9 10.6002C38.5 10.3002 39.3 10.2002 40.1 10.2002C40.9 10.2002 41.6 10.3002 42.2 10.6002C42.8 10.9002 43.3 11.2002 43.8 11.7002L43 12.9002Z" fill="#613C99"/>
<path d="M48.2 6V14.2H48.7C48.9 14.2 49 14.2 49.1 14.1C49.2 14 49.3 14 49.4 13.8L51.3 10.9C51.4 10.7 51.5 10.6 51.7 10.5C51.9 10.4 52 10.4 52.3 10.4H55.1L52.5 14.1C52.4 14.3 52.2 14.4 52.1 14.6C52 14.7 51.8 14.8 51.6 15C51.9 15.2 52.1 15.5 52.4 15.9L55.3 20.8H52.6C52.4 20.8 52.2 20.8 52 20.7C51.8 20.6 51.7 20.5 51.6 20.3L49.7 16.7C49.6 16.5 49.5 16.4 49.4 16.4C49.3 16.4 49 16.1 48.8 16.1H48.2V20.6H45.2V6H48.2Z" fill="#613C99"/>
<path d="M60.4 10.2998C61.2 10.2998 61.9 10.3998 62.5 10.6998C63.1 10.8998 63.7 11.2998 64.1 11.6998C64.6 12.1998 64.9 12.6998 65.2 13.2998C65.5 13.8998 65.6 14.6998 65.6 15.4998C65.6 16.2998 65.5 16.9998 65.2 17.6998C64.9 18.2998 64.6 18.8998 64.1 19.3998C63.6 19.8998 63.1 20.1998 62.5 20.3998C61.9 20.5998 61.2 20.7998 60.4 20.7998C59.6 20.7998 58.9 20.6998 58.3 20.3998C57.7 20.1998 57.1 19.7998 56.7 19.3998C56.2 18.8998 55.9 18.3998 55.6 17.6998C55.3 17.0998 55.2 16.2998 55.2 15.4998C55.2 14.6998 55.3 13.9998 55.6 13.2998C55.9 12.5998 56.2 12.0998 56.7 11.6998C57.2 11.1998 57.7 10.8998 58.3 10.6998C58.9 10.4998 59.7 10.2998 60.4 10.2998ZM60.4 18.4998C61.1 18.4998 61.6 18.2998 61.9 17.7998C62.2 17.2998 62.4 16.5998 62.4 15.5998C62.4 14.5998 62.2 13.7998 61.9 13.3998C61.6 12.9998 61.1 12.6998 60.4 12.6998C59.7 12.6998 59.2 12.8998 58.8 13.3998C58.4 13.8998 58.3 14.5998 58.3 15.5998C58.3 16.5998 58.5 17.3998 58.8 17.7998C59.2 18.2998 59.7 18.4998 60.4 18.4998Z" fill="#613C99"/>
<path d="M70.1 10.5V16.9C70.1 17.4 70.2 17.8 70.4 18.1C70.6 18.4 71 18.5 71.4 18.5C71.7 18.5 72 18.4 72.3 18.3C72.6 18.2 72.9 18 73.1 17.7V10.5H76.1V20.7H74.2C73.8 20.7 73.6 20.5 73.5 20.2L73.3 19.6C73.1 19.8 72.9 20 72.7 20.1C72.5 20.3 72.3 20.4 72 20.5C71.8 20.6 71.5 20.7 71.2 20.8C70.9 20.9 70.6 20.9 70.3 20.9C69.7 20.9 69.3 20.8 68.8 20.6C68.4 20.4 68 20.1 67.7 19.8C67.4 19.5 67.2 19 67 18.6C66.8 18.1 66.8 17.6 66.8 17.1V10.7H70.1V10.5Z" fill="#613C99"/>
<path d="M82.2 20.8C81.7 20.8 81.3 20.7 80.9 20.6C80.5 20.5 80.2 20.3 80 20C79.7 19.7 79.6 19.4 79.4 19.1C79.3 18.7 79.2 18.3 79.2 17.9V12.7H78.3C78.1 12.7 78 12.6 77.9 12.5C77.8 12.4 77.7 12.3 77.7 12.1V10.9L79.3 10.6L80 8C80.1 7.7 80.3 7.5 80.7 7.5H82.3V10.5H84.8V12.6H82.3V17.6C82.3 17.8 82.4 18 82.5 18.2C82.6 18.4 82.8 18.4 83 18.4C83.1 18.4 83.2 18.4 83.3 18.4C83.4 18.4 83.4 18.4 83.5 18.3C83.6 18.3 83.6 18.2 83.7 18.2C83.7 18.2 83.8 18.2 83.9 18.2C84 18.2 84.1 18.2 84.1 18.3C84.2 18.3 84.2 18.4 84.3 18.5L85.2 19.9C84.8 20.2 84.4 20.4 83.9 20.6C83.2 20.7 82.7 20.8 82.2 20.8Z" fill="#613C99"/>
<path d="M119.9 16.9004V21.7004H116.6V7.40039H121.6C122.6 7.40039 123.5 7.50039 124.2 7.80039C124.9 8.00039 125.5 8.40039 126 8.80039C126.5 9.20039 126.8 9.70039 127 10.3004C127.2 10.9004 127.3 11.5004 127.3 12.1004C127.3 12.8004 127.2 13.5004 127 14.1004C126.8 14.7004 126.4 15.2004 126 15.6004C125.5 16.0004 124.9 16.4004 124.2 16.6004C123.5 16.8004 122.6 17.0004 121.6 17.0004H119.9V16.9004ZM119.9 14.4004H121.6C122.5 14.4004 123.1 14.2004 123.5 13.8004C123.9 13.4004 124.1 12.8004 124.1 12.1004C124.1 11.8004 124.1 11.5004 124 11.2004C123.9 10.9004 123.8 10.7004 123.6 10.5004C123.4 10.3004 123.1 10.2004 122.8 10.1004C122.5 10.0004 122.1 9.90039 121.7 9.90039H120V14.4004H119.9Z" fill="#613C99"/>
<path d="M132.2 7V21.7H129.2V7H132.2Z" fill="#613C99"/>
<path d="M137.5 11.5996V17.9996C137.5 18.4996 137.6 18.8996 137.8 19.1996C138 19.4996 138.4 19.5996 138.8 19.5996C139.1 19.5996 139.4 19.4996 139.7 19.3996C140 19.2996 140.3 19.0996 140.5 18.7996V11.5996H143.5V21.7996H141.6C141.2 21.7996 141 21.5996 140.9 21.2996L140.7 20.6996C140.5 20.8996 140.3 21.0996 140.1 21.1996C139.9 21.3996 139.7 21.4996 139.4 21.5996C139.2 21.6996 138.9 21.7996 138.6 21.8996C138.3 21.9996 138 21.9996 137.7 21.9996C137.1 21.9996 136.7 21.8996 136.2 21.6996C135.8 21.4996 135.4 21.1996 135.1 20.8996C134.8 20.5996 134.6 20.0996 134.4 19.6996C134.2 19.1996 134.2 18.6996 134.2 18.1996V11.7996H137.5V11.5996Z" fill="#613C99"/>
<path d="M149.6 11.4004C150 11.4004 150.4 11.4004 150.8 11.5004C151.2 11.6004 151.5 11.7004 151.9 11.9004H155V13.0004C155 13.2004 155 13.3004 154.9 13.4004C154.8 13.5004 154.6 13.6004 154.4 13.6004L153.7 13.8004C153.8 14.1004 153.8 14.4004 153.8 14.7004C153.8 15.2004 153.7 15.7004 153.5 16.1004C153.3 16.5004 153 16.8004 152.6 17.1004C152.2 17.4004 151.8 17.6004 151.3 17.8004C150.8 18.0004 150.3 18.0004 149.7 18.0004C149.4 18.0004 149.1 18.0004 148.8 17.9004C148.6 18.0004 148.5 18.2004 148.5 18.4004C148.5 18.6004 148.6 18.7004 148.8 18.8004C149 18.9004 149.2 18.9004 149.5 19.0004C149.8 19.0004 150.1 19.0004 150.5 19.0004C150.9 19.0004 151.3 19.0004 151.7 19.1004C152.1 19.1004 152.5 19.2004 152.9 19.3004C153.3 19.4004 153.6 19.5004 153.9 19.7004C154.2 19.9004 154.4 20.1004 154.6 20.5004C154.8 20.8004 154.9 21.2004 154.9 21.7004C154.9 22.2004 154.8 22.6004 154.6 23.0004C154.4 23.4004 154.1 23.8004 153.6 24.2004C153.2 24.5004 152.6 24.8004 152 25.0004C151.4 25.2004 150.7 25.3004 149.8 25.3004C149 25.3004 148.3 25.2004 147.7 25.1004C147.1 24.9004 146.6 24.8004 146.3 24.5004C145.9 24.3004 145.6 24.0004 145.5 23.7004C145.4 23.4004 145.2 23.0004 145.2 22.7004C145.2 22.2004 145.3 21.9004 145.6 21.6004C145.9 21.3004 146.2 21.0004 146.7 20.9004C146.5 20.7004 146.3 20.6004 146.2 20.3004C146.1 20.1004 146 19.8004 146 19.4004C146 19.2004 146 19.1004 146.1 18.9004C146.2 18.7004 146.2 18.6004 146.3 18.4004C146.4 18.2004 146.6 18.1004 146.7 17.9004C146.9 17.8004 147.1 17.6004 147.3 17.5004C146.8 17.2004 146.4 16.8004 146.1 16.4004C145.8 15.9004 145.6 15.4004 145.6 14.8004C145.6 14.3004 145.7 13.8004 145.9 13.4004C146.1 13.0004 146.4 12.6004 146.8 12.4004C147.2 12.1004 147.6 11.9004 148.1 11.7004C148.5 11.5004 149 11.4004 149.6 11.4004ZM151.9 22.1004C151.9 21.9004 151.8 21.8004 151.7 21.7004C151.6 21.6004 151.5 21.5004 151.3 21.5004C151.1 21.4004 150.9 21.4004 150.7 21.4004C150.5 21.4004 150.2 21.4004 150 21.4004C149.8 21.4004 149.5 21.4004 149.2 21.4004C148.9 21.4004 148.6 21.4004 148.3 21.3004C148.1 21.4004 148 21.6004 147.8 21.7004C147.7 21.9004 147.6 22.0004 147.6 22.2004C147.6 22.3004 147.6 22.5004 147.7 22.6004C147.8 22.7004 147.9 22.8004 148 22.9004C148.2 23.0004 148.4 23.1004 148.6 23.1004C148.9 23.1004 149.2 23.2004 149.6 23.2004C150 23.2004 150.4 23.2004 150.7 23.1004C151 23.0004 151.2 23.0004 151.4 22.9004C151.6 22.8004 151.7 22.7004 151.7 22.6004C151.8 22.4004 151.9 22.2004 151.9 22.1004ZM149.6 16.1004C150.1 16.1004 150.5 16.0004 150.7 15.7004C150.9 15.4004 151 15.1004 151 14.7004C151 14.3004 150.9 14.0004 150.7 13.7004C150.5 13.5004 150.1 13.3004 149.6 13.3004C149.1 13.3004 148.7 13.4004 148.5 13.7004C148.3 13.9004 148.2 14.3004 148.2 14.7004C148.2 14.9004 148.2 15.1004 148.3 15.2004C148.4 15.4004 148.4 15.5004 148.6 15.6004C148.7 15.7004 148.9 15.8004 149 15.9004C149.1 16.1004 149.4 16.1004 149.6 16.1004Z" fill="#613C99"/>
<path d="M159.4 11.5996V21.7996H156.4V11.5996H159.4Z" fill="#613C99"/>
<path d="M161.8 21.7004V11.6004H163.7C163.9 11.6004 164 11.6004 164.2 11.7004C164.3 11.8004 164.4 11.9004 164.5 12.1004L164.7 12.7004C164.9 12.5004 165.1 12.3004 165.3 12.2004C165.5 12.0004 165.7 11.9004 166 11.8004C166.2 11.7004 166.5 11.6004 166.8 11.5004C167.1 11.4004 167.4 11.4004 167.7 11.4004C168.3 11.4004 168.7 11.5004 169.2 11.7004C169.6 11.9004 170 12.2004 170.3 12.5004C170.6 12.8004 170.8 13.3004 171 13.7004C171.2 14.2004 171.2 14.7004 171.2 15.2004V21.7004H168.2V15.2004C168.2 14.7004 168.1 14.3004 167.9 14.0004C167.7 13.7004 167.3 13.6004 166.9 13.6004C166.6 13.6004 166.3 13.7004 166 13.8004C165.7 13.9004 165.4 14.1004 165.2 14.4004V21.6004H161.8V21.7004Z" fill="#613C99"/>
<path d="M179.4 13.8C179.3 13.9 179.2 14 179.2 14.1C179.1 14.2 179 14.2 178.9 14.2C178.8 14.2 178.6 14.2 178.5 14.1C178.4 14 178.2 14 178 13.9C177.8 13.8 177.6 13.8 177.4 13.7C177.2 13.6 177 13.6 176.7 13.6C176.3 13.6 176 13.7 175.8 13.8C175.6 13.9 175.5 14.2 175.5 14.4C175.5 14.6 175.6 14.7 175.7 14.9C175.8 15 176 15.1 176.2 15.2C176.4 15.3 176.7 15.4 177 15.5C177.3 15.6 177.6 15.7 177.9 15.8C178.2 15.9 178.5 16 178.8 16.2C179.1 16.3 179.3 16.5 179.6 16.7C179.8 16.9 180 17.2 180.1 17.4C180.2 17.7 180.3 18 180.3 18.5C180.3 19 180.2 19.5 180 19.9C179.8 20.3 179.5 20.7 179.2 21C178.8 21.3 178.4 21.5 177.9 21.7C177.4 21.9 176.8 22 176.1 22C175.8 22 175.4 22 175.1 21.9C174.8 21.8 174.4 21.7 174.1 21.6C173.8 21.5 173.5 21.4 173.2 21.2C172.9 21 172.7 20.9 172.5 20.7L173.2 19.6C173.3 19.5 173.4 19.4 173.5 19.3C173.6 19.2 173.8 19.2 174 19.2C174.2 19.2 174.3 19.2 174.5 19.3C174.6 19.4 174.8 19.5 175 19.6C175.2 19.7 175.4 19.8 175.6 19.9C175.8 20 176.1 20 176.4 20C176.6 20 176.8 20 177 19.9C177.2 19.9 177.3 19.8 177.4 19.7C177.5 19.6 177.6 19.5 177.6 19.4C177.6 19.3 177.7 19.2 177.7 19.1C177.7 18.9 177.6 18.7 177.5 18.6C177.4 18.5 177.2 18.4 177 18.3C176.8 18.2 176.5 18.1 176.2 18C175.9 17.9 175.6 17.8 175.3 17.7C175 17.6 174.7 17.5 174.4 17.3C174.1 17.2 173.9 17 173.6 16.7C173.4 16.5 173.2 16.2 173.1 15.9C173 15.6 172.9 15.2 172.9 14.7C172.9 14.3 173 13.9 173.1 13.5C173.3 13.1 173.5 12.8 173.8 12.5C174.1 12.2 174.6 12 175.1 11.8C175.6 11.6 176.2 11.5 176.9 11.5C177.3 11.5 177.6 11.5 178 11.6C178.3 11.7 178.7 11.8 179 11.9C179.3 12 179.6 12.2 179.8 12.3C180 12.5 180.3 12.6 180.5 12.8L179.4 13.8Z" fill="#613C99"/>
<path d="M98.8 8.1002L101.1 10.5002L106.4 5.2002" stroke="white" stroke-width="1.2885" stroke-miterlimit="10" stroke-linecap="round"/>
<path d="M159.7 8.8C159.7 9 159.7 9.3 159.6 9.5C159.5 9.7 159.4 9.9 159.2 10.1C159 10.3 158.8 10.4 158.6 10.5C158.4 10.6 158.1 10.6 157.9 10.6C157.7 10.6 157.4 10.6 157.2 10.5C157 10.4 156.8 10.3 156.6 10.1C156.4 9.9 156.3 9.8 156.2 9.5C156.1 9.3 156.1 9.1 156.1 8.8C156.1 8.6 156.1 8.3 156.2 8.1C156.3 7.9 156.4 7.7 156.6 7.5C156.8 7.3 157 7.2 157.2 7.1C157.4 7 157.6 7 157.9 7C158.2 7 158.4 7 158.6 7.1C158.8 7.2 159 7.3 159.2 7.5C159.4 7.7 159.5 7.9 159.6 8.1C159.7 8.3 159.7 8.5 159.7 8.8Z" fill="#613C99"/>
</svg>
